<svg class="main-svg" xmlns="http://www.w3.org/2000/svg" xmlns:xlink="http://www.w3.org/1999/xlink" width="700" height="450" style="" viewBox="0 0 700 450"><rect x="0" y="0" width="700" height="450" style="fill: rgb(255, 255, 255); fill-opacity: 1;"/><defs id="defs-c14883"><g class="clips"><clipPath id="clipc14883xyplot" class="plotclip"><rect width="580" height="330"/></clipPath><clipPath class="axesclip" id="clipc14883x"><rect x="60" y="0" width="580" height="450"/></clipPath><clipPath class="axesclip" id="clipc14883y"><rect x="0" y="60" width="700" height="330"/></clipPath><clipPath class="axesclip" id="clipc14883xy"><rect x="60" y="60" width="580" height="330"/></clipPath></g><g class="gradients"/></defs><g class="bglayer"><rect class="bg" x="60" y="60" width="580" height="330" style="fill: rgb(255, 255, 255); fill-opacity: 1; stroke-width: 0;"/></g><g class="layer-below"><g class="imagelayer"/><g class="shapelayer"/></g><g class="cartesianlayer"><g class="subplot xy"><g class="layer-subplot"><g class="shapelayer"/><g class="imagelayer"/></g><g class="gridlayer"><g class="x"><path class="xgrid crisp" d="M0,60v330" transform="translate(187.92000000000002,0)" style="stroke: rgb(238, 238, 238); stroke-opacity: 1; stroke-width: 1px;"/><path class="xgrid crisp" d="M0,60v330" transform="translate(315.84000000000003,0)" style="stroke: rgb(238, 238, 238); stroke-opacity: 1; stroke-width: 1px;"/><path class="xgrid crisp" d="M0,60v330" transform="translate(443.77,0)" style="stroke: rgb(238, 238, 238); stroke-opacity: 1; stroke-width: 1px;"/><path class="xgrid crisp" d="M0,60v330" transform="translate(571.69,0)" style="stroke: rgb(238, 238, 238); stroke-opacity: 1; stroke-width: 1px;"/></g><g class="y"><path class="ygrid crisp" d="M60,0h580" transform="translate(0,378.49)" style="stroke: rgb(238, 238, 238); stroke-opacity: 1; stroke-width: 1px;"/><path class="ygrid crisp" d="M60,0h580" transform="translate(0,329.13)" style="stroke: rgb(238, 238, 238); stroke-opacity: 1; stroke-width: 1px;"/><path class="ygrid crisp" d="M60,0h580" transform="translate(0,279.76)" style="stroke: rgb(238, 238, 238); stroke-opacity: 1; stroke-width: 1px;"/><path class="ygrid crisp" d="M60,0h580" transform="translate(0,230.4)" style="stroke: rgb(238, 238, 238); stroke-opacity: 1; stroke-width: 1px;"/><path class="ygrid crisp" d="M60,0h580" transform="translate(0,181.03)" style="stroke: rgb(238, 238, 238); stroke-opacity: 1; stroke-width: 1px;"/><path class="ygrid crisp" d="M60,0h580" transform="translate(0,131.67000000000002)" style="stroke: rgb(238, 238, 238); stroke-opacity: 1; stroke-width: 1px;"/><path class="ygrid crisp" d="M60,0h580" transform="translate(0,82.3)" style="stroke: rgb(238, 238, 238); stroke-opacity: 1; stroke-width: 1px;"/></g></g><g class="zerolinelayer"><path class="xzl zl crisp" d="M0,60v330" transform="translate(60,0)" style="stroke: rgb(68, 68, 68); stroke-opacity: 1; stroke-width: 1px;"/></g><path class="xlines-below"/><path class="ylines-below"/><g class="overlines-below"/><g class="xaxislayer-below"/><g class="yaxislayer-below"/><g class="overaxes-below"/><g class="plot" transform="translate(60, 60)" clip-path="url(#clipc14883xyplot)"><g class="imagelayer"/><g class="maplayer"/><g class="barlayer"/><g class="carpetlayer"/><g class="violinlayer"/><g class="boxlayer"/><g class="ohlclayer"/><g class="scatterlayer"><g class="trace scatter trace1cf499" style="stroke-miterlimit: 2; opacity: 1;"><path class="js-line" style="vector-effect: non-scaling-stroke; fill: none; stroke: rgb(31, 119, 180); stroke-opacity: 1; stroke-width: 2px; opacity: 1;" d="M0,50.43L1.02,16.5L1.28,16.69L1.54,16.78L1.79,19.13L2.81,28.75L3.07,27.92L3.84,36.59L4.09,34.9L4.35,33.51L6.65,40.78L6.91,27.52L8.44,50.41L8.7,49.44L8.95,46.6L9.47,48.37L9.72,49.68L11,55.89L11.26,56.39L11.51,57.09L11.77,56.29L12.02,55.62L13.56,60.11L13.82,104.32L14.07,104.99L14.33,88.36L14.84,72.55L15.09,76.37L15.35,78.08L16.63,88.8L16.89,85.52L17.65,81.3L17.91,81.41L18.16,80.85L18.42,79.54L18.68,79.92L18.93,81L19.19,80.17L19.7,80.96L19.96,81.07L20.72,78.2L20.98,95.14L22,106.59L22.26,103.98L22.51,102.35L22.77,106.76L24.05,96.64L24.31,96.89L24.56,98.03L25.07,96.16L25.33,93.22L25.58,92.48L25.84,93.34L26.1,93.7L27.63,99.37L27.89,101.13L28.65,108.87L28.91,102.42L29.42,110.43L29.68,109.22L29.93,106.47L30.19,104.97L30.45,106.53L30.7,109.7L30.96,109.08L31.21,110.8L32.49,113.93L32.75,114.76L33.26,113.25L33.52,114.37L33.77,117.41L34.03,117.89L34.28,117.74L34.54,91.53L36.33,133.69L36.59,124.65L37.87,133.47L38.12,132.88L38.38,131.94L39.14,130.37L39.4,132.12L39.66,131.49L39.91,131.66L40.17,133.13L40.94,134.08L41.19,133.65L41.45,166.46L42.21,138.85L42.47,146.31L42.73,148.55L43.75,144.1L44.01,144L44.26,142.5L44.52,145.64L45.28,140.67L45.54,141.75L45.8,143.16L46.31,145.4L46.56,144.25L46.82,142.41L47.84,140.4L48.1,141.49L48.35,173.48L48.87,159.56L49.12,158.21L49.89,146.12L50.15,147.35L50.4,151.37L50.66,152L50.91,150.33L51.17,153.46L51.42,150.53L51.68,149.1L52.19,153.46L52.45,149.78L52.7,150.01L53.22,149.56L53.47,150.4L53.73,149.89L53.98,151.08L54.24,150.44L54.49,152.22L55.01,152.31L55.26,71.41L56.29,147.36L56.54,142.12L58.08,160.07L58.33,161.5L58.84,160.98L59.1,162.05L61.4,156.78L61.66,158.19L61.91,158.66L62.17,153.38L62.43,155.28L62.68,142.58L63.45,158.95L63.71,158.2L63.96,158.29L64.22,156.23L64.47,158.86L64.73,159.59L64.98,159.34L65.24,162.1L65.5,162.53L65.75,164.9L66.01,164.59L66.26,166.37L66.78,167L67.03,165.85L68.57,168.76L68.82,166.49L69.08,158.15L69.33,171.42L69.59,173.82L71.12,182.92L71.38,179.96L72.15,182.88L72.4,181.45L72.66,181.07L72.92,182.53L73.17,182.96L73.43,184.95L73.68,182.26L74.19,183.23L74.45,182.71L74.71,182.42L74.96,180.79L75.73,178.06L75.99,191.4L76.75,207.12L77.01,194.59L78.03,183.55L78.29,184.05L78.54,186.31L78.8,186.59L79.06,188.27L79.31,189.46L79.57,189.02L79.82,187.85L80.08,187.3L80.59,187.61L80.85,187.85L81.87,184.51L82.13,185.84L82.38,185.37L82.64,185.66L82.89,179.51L83.41,200.95L83.66,196.42L83.92,182.18L84.17,182.32L84.43,186.98L84.68,184.41L84.94,186.17L85.2,186.9L85.45,188.54L85.71,187.04L85.96,184.66L86.73,188.44L86.99,185.48L87.5,187.21L87.75,185.06L88.01,184.77L88.27,185.84L89.55,182.53L89.8,201.62L90.57,223.47L90.82,219.34L91.08,216.25L91.34,218.5L91.59,219.47L92.36,226.2L92.62,221.73L92.87,222.72L93.13,222.12L93.38,220.12L94.15,218.26L94.41,218.78L94.66,220.94L95.94,218.47L96.2,218.03L96.45,217.89L96.71,219.79L96.97,243.88L97.48,232.14L97.73,228.49L97.99,226.47L98.24,226.87L98.5,228.97L99.52,231.82L99.78,231.76L100.8,228.27L101.06,227.39L101.83,226.13L102.08,227.06L102.34,227.16L102.59,226.09L103.36,223.83L103.62,237.5L103.87,240.17L104.13,229.01L105.41,219L105.66,220.16L105.92,222.69L106.43,221.28L106.69,218.17L107.2,217.72L107.45,218.4L108.99,225.16L109.25,224.11L110.52,225.53L110.78,239.59L111.04,242.18L111.29,236.81L111.55,237.21L111.8,235.83L112.57,238.11L112.83,235.96L113.08,235.6L113.34,233.88L114.36,231.08L114.62,232.65L114.87,233.69L115.13,231.24L115.9,232.1L116.15,231.22L116.41,231.82L116.67,230.68L116.92,231.01L117.18,231.07L117.43,215.58L117.94,247.16L118.46,237.67L118.71,233.42L118.97,234.01L119.22,231.89L119.48,232.3L119.99,231.89L120.25,232.1L120.5,231.58L120.76,233.75L121.78,229.95L122.04,230.27L122.29,231.17L122.55,230.69L122.81,227.71L123.06,227.12L123.32,227.61L123.57,228.3L124.08,229.24L124.34,238.26L124.6,250.45L125.11,248.09L125.36,247.45L125.62,250.95L126.13,250.74L126.39,250.15L127.15,257.76L127.41,254.42L128.69,257.67L128.95,256.04L129.71,254.86L129.97,256.3L130.48,256.8L131.25,250.91L131.5,256.46L132.02,270.66L132.27,267.89L132.53,268.24L133.04,267.68L133.3,260.71L133.55,260.9L133.81,260.27L134.06,257.42L135.34,259.22L135.6,258.5L135.85,258.16L136.11,259L136.37,258.63L136.62,260.02L136.88,260.17L137.13,259.13L137.9,257.82L138.16,276.27L138.67,268.3L138.92,263.64L139.18,264.16L139.44,258.64L139.69,257.51L139.95,259.34L140.2,258.93L141.23,250.75L141.48,253.5L142.25,251.46L142.51,252.12L143.02,251.31L143.27,252.43L143.78,251.97L144.04,251.87L144.81,253.04L145.06,249.2L145.32,243.06L145.58,246.87L145.83,251.19L146.09,257L146.6,255.52L146.85,255.69L148.13,262.5L148.39,259L149.41,261.47L149.67,262.13L150.18,263.24L150.44,264.41L150.69,264.96L151.2,264.44L151.46,263.9L151.72,264.3L151.97,289.58L153,268.69L153.25,269.93L153.51,265.08L154.02,265.66L154.27,265.29L154.53,265.79L154.79,264.8L155.04,264.04L156.07,265.07L156.32,263.71L156.58,263.09L156.83,263.81L157.09,264.52L157.34,263.65L157.6,264.41L157.86,265.05L158.62,265.2L158.88,250.84L159.39,278.42L159.9,273.72L160.16,273.62L161.69,268.39L161.95,269.91L162.21,270.26L162.46,268.42L163.74,265.91L164,266.81L164.25,267.38L164.76,267.05L165.02,268.26L165.53,266.93L165.79,281.61L166.81,266.31L167.07,264.39L167.32,262.6L167.58,265.19L167.83,265.55L168.86,268.39L169.11,268.32L169.63,268.69L170.39,266.87L170.65,269.04L171.42,270.83L171.67,269.33L172.18,270.08L172.44,269.92L172.7,281.04L173.21,272.89L173.72,273.95L173.97,273.81L174.23,270.77L174.74,272.15L175,271.7L175.51,267.65L176.02,268.75L176.28,269.04L177.56,273.14L177.81,272.16L179.35,274.33L179.6,272.5L179.86,273.92L180.11,271.02L180.37,271.67L180.63,269.95L180.88,275.28L181.39,273.82L181.65,274.01L183.18,280.14L183.44,279.95L183.7,279.9L185.23,277.74L185.49,278.82L185.74,277.57L186.25,277.86L186.51,285.48L186.77,273.84L187.28,281.94L187.53,280.96L187.79,283.14L188.3,281.83L188.56,282.94L189.07,281.86L189.33,281.2L190.09,276.73L190.35,277.42L190.6,278.09L191.63,275.86L191.88,275.17L192.4,275.36L192.65,276.71L192.91,276.81L193.16,275.7L193.42,266.94L193.93,271.9L194.19,268.64L195.21,274.78L195.47,273.65L195.72,274.39L195.98,272.77L197,274.29L197.26,277.04L197.51,275.83L198.02,276.56L198.28,275.86L198.79,275.92L199.05,274.34L199.56,275.8L199.81,275.5L200.07,275.15L200.33,304.7L200.84,287.8L201.09,282.78L201.86,287.47L202.12,286.95L202.37,286.54L203.14,289.42L203.4,288.11L204.42,287.13L204.68,284.94L206.72,281.74L206.98,282.38L207.49,277.86L207.75,267.99L208,276.42L208.51,275.38L208.77,275.92L209.03,275.37L209.28,279.35L209.54,278.13L209.79,279.26L210.05,281L211.07,284.58L211.33,283.4L212.1,280.56L212.35,280.68L212.61,281.67L212.86,280.71L213.12,282.04L213.37,282.83L213.89,282.57L214.14,274.94L214.4,274.61L214.65,283.14L214.91,279.39L215.17,286.57L215.42,287.72L215.68,284.26L215.93,284.12L216.19,285.65L216.44,283.65L216.7,285.19L216.96,286.57L217.47,286.23L217.72,287.37L217.98,286.63L218.75,281.95L219,283.54L219.26,283.29L219.51,282.3L220.03,283.23L220.28,282.43L221.05,282.67L221.31,290.65L221.82,282.7L222.07,283.35L222.33,282.64L223.35,285.55L223.61,285.58L224.12,286.39L224.38,287.11L224.89,285.28L225.14,285.52L225.4,286.89L225.66,287.45L225.91,285.79L226.42,283.89L226.93,284.55L227.19,284.93L227.7,284.1L227.96,274.42L228.21,278.91L228.47,276.54L228.73,273.83L229.49,279.32L229.75,276.15L230,276.68L230.26,279.48L230.52,279.61L230.77,280.99L231.03,279.76L231.28,280.82L231.54,281.98L232.82,285.65L233.07,285.85L234.61,282.99L234.87,274.37L235.38,284.03L235.89,283.26L236.14,278.07L236.4,278.37L236.66,280.35L236.91,281.96L237.17,279.19L237.42,279.08L238.19,278.66L238.45,279.05L239.21,277.82L239.47,278.86L240.49,278.31L240.75,279.26L241.26,278.61L241.52,279.13L241.77,289.02L242.03,285.08L242.54,288.55L242.8,287.72L243.05,287.29L243.31,288.98L243.56,291.12L243.82,287.63L244.08,287.01L244.33,285.95L244.59,287.31L244.84,288.71L245.61,288.15L245.87,290.23L246.63,288.37L246.89,289.14L247.4,289.04L247.66,288.25L247.91,289.16L248.43,288.85L248.68,293.02L249.45,280L249.7,281.66L249.96,282.55L250.47,281.76L250.73,284.67L250.98,285.89L251.5,284.78L251.75,284.61L252.77,286.46L253.03,285.71L253.8,287.75L254.05,286.59L255.33,284.18L255.59,296.27L255.84,284.09L256.36,286.31L256.61,285.31L257.38,279.46L257.64,281.41L258.15,281.54L258.4,283.75L258.91,284.8L259.17,284.56L259.43,283.85L260.45,285.58L260.71,284.74L260.96,284.1L261.73,284.31L261.99,285.38L262.24,285.5L262.5,271.32L262.75,271.9L263.01,284.72L263.78,287.74L264.03,287.25L264.54,290.59L264.8,288.45L265.06,287.48L265.82,283.68L266.08,286.12L267.1,287.17L267.36,285.98L267.61,286.69L267.87,285.79L268.13,285.28L269.15,285.1L269.4,287.33L269.66,299.59L269.92,292.63L270.17,287.46L270.43,287.59L270.68,284.79L272.22,276.4L272.47,278.66L273.75,284.03L274.01,283.13L274.78,284.67L275.03,283.3L276.06,285.6L276.31,290.31L277.08,278.31L277.34,278.68L277.59,277.07L277.85,281.28L278.87,288.86L279.13,288.65L279.64,290.72L279.89,289.57L280.15,289.27L280.92,290.97L281.17,290.5L281.69,290.3L281.94,288.85L282.71,286.27L282.96,286.69L283.22,297.74L283.99,287.63L284.24,288.19L284.5,290.53L284.76,294.58L285.01,290.69L285.27,288.44L286.29,291.1L286.55,290.96L287.31,290.28L287.57,288.82L288.34,288.92L288.59,289.29L288.85,288.93L289.1,289.65L289.36,289.86L289.87,290.53L290.13,255.14L290.64,289.87L291.15,289.73L291.41,284.6L291.92,285.27L292.17,283.2L292.43,280.64L292.69,280.57L292.94,282.27L293.2,281.25L293.45,281.87L293.71,282.33L294.22,282.33L294.48,281.96L296.27,285.82L296.52,285.02L296.78,286.53L297.04,297.45L297.29,293.18L297.55,299.74L297.8,301.26L298.06,299.82L298.31,301.02L298.57,301.77L299.08,302.02L300.36,293.86L300.62,294.85L300.87,295.68L302.66,290.74L302.92,291.15L303.69,290.49L303.94,295.19L304.2,286.98L304.46,299.07L304.71,296.67L304.97,298.5L305.22,296.57L305.48,295.77L306.25,293.38L306.5,293.58L306.76,292.52L307.01,292.49L307.27,291.48L307.53,292.71L307.78,291.75L308.04,290.07L308.29,289.81L308.55,291.18L309.32,286.82L309.83,287L310.08,287.09L310.6,287.01L310.85,303.42L311.11,296.4L311.62,298.22L311.87,297.04L312.39,294.09L312.64,295.7L312.9,296L313.15,297.79L313.67,297.5L313.92,295.66L314.94,293.19L315.2,292.21L316.22,291.41L316.48,291.24L317.5,290.11L317.76,288.69L318.53,277.61L318.78,278.61L319.04,278.19L319.55,277.59L319.81,279.96L320.06,278.47L320.32,278.78L320.57,281.11L321.6,283.97L321.85,283.4L322.11,282.65L322.36,281.99L322.62,282.51L322.88,283.22L323.9,283.87L324.16,282.64L324.41,283.9L324.67,301.98L325.69,292.15L325.95,295.83L326.97,290.99L327.23,293.3L328.5,296.96L328.76,296.59L329.27,295.23L329.53,295.32L329.78,295.37L330.3,295.91L330.55,294.6L331.32,293.3L331.57,277.86L331.83,285.51L332.09,277.82L332.34,285.32L332.6,284.1L333.11,283.48L333.37,284.6L333.62,284.55L333.88,283.09L334.9,284.69L335.16,283.64L335.41,283.89L335.67,283.35L335.92,285.1L336.44,284.19L336.69,284.31L336.95,285.23L337.72,284.21L337.97,285.58L338.23,285.53L338.48,276.27L338.74,278.21L338.99,292.85L339.25,292.76L339.51,294.82L340.53,286.94L340.79,288.91L341.04,289.55L342.06,290.29L342.32,288.25L342.83,288.5L343.09,287.2L343.34,287.77L343.6,288.06L343.86,287.06L344.62,287.77L344.88,286.98L345.13,287.57L345.39,284.9L345.65,302.89L346.16,300.86L346.41,301.44L346.67,301.71L346.93,299.4L347.44,300.06L347.69,298.37L348.72,296.37L348.97,297.57L349.74,295.03L350,293.49L351.27,291.59L351.53,292.28L352.04,291.35L352.3,303.69L352.81,288.26L353.07,295.41L353.32,295.3L353.58,293.48L353.83,294.85L354.09,296.22L354.34,294.93L354.6,295.78L354.86,296.79L355.11,295.76L355.62,296.67L355.88,296.78L358.69,290.98L358.95,290.96L359.46,299.82L359.72,299.21L359.97,295.91L360.49,294.95L360.74,295.36L361,292.62L362.02,287.72L362.28,288.49L362.79,288.17L363.04,288.78L363.56,287.04L363.81,288.09L364.07,288.47L365.86,290.74L366.11,300.03L366.37,306.08L366.63,295.87L366.88,290.97L367.14,290.99L367.39,292.78L367.65,293.26L367.9,289.96L368.42,285.05L368.93,285.95L369.18,284.8L369.44,283.79L369.7,284.7L369.95,285.79L370.72,283.96L370.97,285.09L371.23,286.25L371.49,284.9L371.74,284.89L372.51,286.92L372.77,286.47L373.02,292.46L373.53,276.5L373.79,277.27L374.04,280.8L374.3,279.74L374.56,282.77L375.32,287.17L375.58,285.94L375.84,285.87L376.35,281.9L376.86,282.86L377.12,283.97L378.39,288.15L378.65,287.08L379.67,288.76L379.93,313.5L380.95,294.38L381.21,292.36L381.46,294.52L381.98,292.54L382.23,291.31L382.74,289.25L383,291.43L383.51,292.07L383.77,292.72L384.02,291.83L384.53,292.31L384.79,292.84L385.56,291.02L385.81,291.18L386.07,291.31L386.58,291.27L386.84,273.99L387.09,266.79L387.6,268.33L387.86,273.37L389.4,281.85L389.65,279.71L390.42,283.5L390.67,285.92L390.93,287.13L391.19,286.71L391.44,285.28L391.95,284.16L392.47,284.63L392.72,284.55L393.49,284.65L393.75,293.07L394,276.32L394.51,286.98L394.77,282.76L395.02,283.16L395.28,282.82L395.54,284.76L396.05,285.66L396.3,283.48L396.56,283.66L396.82,285.13L397.84,288.26L398.09,286.73L399.89,289.94L400.14,289.3L400.4,288.27L400.65,278.47L400.91,285.57L401.16,277.62L401.42,283.88L401.68,283.19L402.44,277.51L402.7,280.47L403.21,282.34L403.47,284.19L404.23,282.82L404.49,284.15L404.75,284.72L405,283.36L406.79,285.67L407.05,285.59L407.3,285.48L407.56,286.68L407.82,288.09L408.07,284.02L409.1,289.97L409.35,287.11L409.61,282.51L410.12,285.08L410.37,283.72L411.14,284.42L411.4,285.08L412.17,286.27L412.42,286.01L412.68,286.23L413.45,284.74L413.96,284.98L414.21,285.75L414.47,298.91L414.98,293.17L415.24,291.47L415.49,295.01L415.75,292.83L416,290.43L416.26,291.39L416.77,290.8L417.03,290.02L418.31,293.56L418.56,291.3L419.33,293.55L419.59,292.65L419.84,292.95L420.35,294.02L420.61,292.4L421.12,293.07L421.38,280.19L421.63,278.88L421.89,279.24L422.14,285.09L422.4,284.61L422.66,285.4L422.91,289.24L423.17,285.66L423.68,285.95L423.93,286.56L424.7,283.37L424.96,283.85L425.21,284.72L427,288.86L427.26,288.75L427.52,288.45L428.8,281.62L429.05,274.11L430.33,285.98L430.59,285.75L431.61,290.6L431.87,288.68L432.12,288.82L432.38,287.28L433.66,289.39L433.91,289.35L434.17,290.31L434.68,289.36L434.94,288.85L435.19,277.59L435.7,278.57L435.96,279.69L436.47,289.33L436.73,288.8L436.98,286.91L438.26,280.03L438.52,281.55L439.8,286.89L440.05,286.49L441.08,287.53L441.33,286.99L441.84,287.36L442.1,292.04L442.36,275.07L442.61,290.06L442.87,291.84L443.12,293.74L443.38,289.01L443.89,289.48L444.15,291.28L444.91,291.81L445.17,291.29L445.68,290.76L445.94,291.65L446.19,291.29L446.96,291.01L447.22,290.45L447.47,289.63L447.98,290.37L448.24,290.3L448.5,289.88L448.75,290.16L449.01,303.12L449.78,283L450.03,284.42L450.29,286.79L451.05,283.61L451.31,284.26L451.57,286.43L452.33,288.32L452.59,288.08L452.85,287.69L453.1,288.44L453.36,288.13L453.61,287.02L454.38,287.15L454.64,288.03L455.15,288.57L455.4,289.31L455.66,290.5L455.92,277.8L456.68,289.44L456.94,286.44L457.19,285.07L457.45,282.06L457.96,284.18L458.22,286.92L458.47,285.44L458.73,287.55L458.99,288.9L459.24,288.81L459.5,289.81L460.01,288.84L460.26,290.46L461.03,288.29L461.29,288.88L461.54,288.44L461.8,288.65L462.06,289.54L462.57,288.69L462.82,273.3L463.08,287.66L463.59,281.87L463.85,281.66L464.87,284.47L465.13,283.2L466.15,281.15L466.4,283.55L467.94,286.32L468.2,286.48L468.45,286.2L468.71,287.3L469.22,288.68L469.48,289.68L469.73,292.4L469.99,272.31L471.01,289.38L471.27,286.91L471.52,287.15L473.06,293.81L473.31,293.75L474.08,293.5L474.34,291.87L474.59,291.64L474.85,292.88L476.38,289.5L476.64,313.28L477.66,295.83L477.92,298.19L478.17,297.97L478.43,294.68L479.96,293.59L480.22,294.55L480.48,292.61L480.99,293.98L481.24,294.17L481.5,294.96L481.76,294.38L482.01,293.15L482.52,292.59L482.78,292.32L483.29,292.18L483.55,263.56L484.06,290.26L484.31,287.78L484.57,285.8L485.08,289.09L485.34,291.44L485.59,291.26L485.85,292.24L486.62,294.05L486.87,292.1L487.13,293.5L487.38,292.95L487.64,291.41L488.41,290.36L488.66,288.72L489.69,289.42L489.94,289.79L490.2,290.7L490.45,278.44L491.22,285.1L491.48,284.01L492.76,292.79L493.01,294.6L493.27,296.17L493.78,295.57L494.04,294.54L495.32,290.49L495.57,291.24L496.59,292.99L496.85,292.43L497.11,293.16L497.36,291.71L497.62,292.42L497.87,292.39L498.13,281.07L498.39,289.12L498.64,294.04L498.9,294.4L499.15,291.41L499.41,290.73L499.66,292.21L500.18,294.24L500.43,293.17L500.69,291.8L501.2,289.4L501.46,289.73L501.71,290.66L502.73,289.66L502.99,290.48L504.01,288.54L504.27,270.73L505.29,290.66L505.55,292.81L506.83,288.69L507.08,288.68L507.34,288.45L507.6,289.06L507.85,289.59L508.11,290.82L508.36,289.45L508.62,289.55L509.39,289.55L509.64,290.55L510.15,291.64L510.41,291.22L510.67,290.26L510.92,289.71L511.18,275.88L512.46,283.25L512.71,282.91L512.97,284.55L513.48,283.22L513.74,280.21L515.27,287.28L515.53,285.98L516.04,287.43L516.55,286.95L516.81,286.7L517.83,286.55L518.09,289.06L518.34,281.73L518.6,288.1L518.85,288.88L519.11,291.1L519.36,289.12L519.62,286.45L520.13,292.57L520.64,291.49L520.9,292.57L521.16,289.45L521.67,291.27L521.92,291.08L522.69,292.23L522.95,292.11L523.2,291.76L523.46,291.34L523.71,291.89L523.97,292.08L524.74,291.98L524.99,296.39L525.25,289.75L525.76,294.63L526.02,297.63L527.04,282.82L527.3,283.93L527.55,285.38L528.58,287.18L528.83,288.4L529.6,285.76L529.85,286.42L530.11,287.09L530.62,287.18L530.88,286.51L531.13,286.12L531.39,286.32L531.65,286.76L531.9,298.95L532.16,285.52L532.41,286.91L533.69,293.86L534.2,293.06L534.46,294.15L535.23,290.48L535.48,290.51L535.74,291.34L537.27,291.39L537.53,290.66L538.55,289.46L538.81,277.12L539.06,271.49L539.32,286.02L539.83,291.68L540.09,289.67L540.34,288.83L540.6,289.87L540.86,289.74L541.11,288.59L541.37,287.9L541.62,288.52L541.88,289.27L542.39,289.67L542.65,289.06L542.9,288.07L543.93,288.77L544.18,288.85L545.21,292.03L545.46,291.92L545.72,278.49L546.48,291.22L547,290.12L547.25,287.72L547.51,284.94L547.76,285.95L548.02,287.57L548.28,286.33L548.53,288.35L548.79,289.7L549.3,289.91L549.55,286.85L550.58,288.09L550.83,287.39L551.09,287.18L552.37,287.9L552.62,287.78L552.88,278.73L553.39,282.59L553.65,284.72L554.16,285.25L554.42,290.06L554.67,290.36L554.93,291.97L555.18,294.05L555.44,291.44L555.69,290.71L556.21,288.38L556.46,288.83L556.72,289.6L556.97,290.16L557.23,289.76L557.49,289.31L558.25,289.08L558.51,290.08L559.02,289.55L559.28,290.25L559.53,286.05L559.79,286.44L560.04,294.45L560.56,294.52L561.07,291.86L561.32,291.7L561.58,292.42L561.84,292.12L562.09,290.94L562.35,289.63L562.86,290.15L563.11,290.77L563.37,290.08L563.88,290.54L564.14,290.38L565.67,289.39L565.93,290.23L566.18,290.07L566.44,265.91L566.95,285.39L567.46,282.61L567.72,286.7L568.74,290.99L569,289.89L569.51,290.15L569.77,290.34L570.28,290.24L570.53,290.76L570.79,292.22L571.05,291.89L571.3,289.94L571.81,290.72L572.07,292.22L572.58,292.96L572.84,292.71L573.09,292.29L573.35,300.21L573.6,296.51L573.86,289.97L574.12,291.64L574.37,286.5L575.91,293.29L576.16,291.73L576.93,293.52L577.19,292.17L577.7,291L577.95,291.91L578.21,291.99L578.46,291.87L578.72,292.76L580,290.46"/><g class="points"/></g></g></g><g class="overplot"/><path class="xlines-above crisp" style="fill: none;" d="M0,0"/><path class="ylines-above crisp" style="fill: none;" d="M0,0"/><g class="overlines-above"/><g class="xaxislayer-above"><g class="xtick"><text text-anchor="middle" x="0" y="403" style="font-family: TOBESTRIPPEDOpen SansTOBESTRIPPED,verdana,arial,sans-serif; font-size: 12px; fill: rgb(68, 68, 68); fill-opacity: 1; white-space: pre;" transform="translate(60,0)">0</text></g><g class="xtick"><text text-anchor="middle" x="0" y="403" style="font-family: TOBESTRIPPEDOpen SansTOBESTRIPPED,verdana,arial,sans-serif; font-size: 12px; fill: rgb(68, 68, 68); fill-opacity: 1; white-space: pre;" transform="translate(187.92000000000002,0)">500</text></g><g class="xtick"><text text-anchor="middle" x="0" y="403" style="font-family: TOBESTRIPPEDOpen SansTOBESTRIPPED,verdana,arial,sans-serif; font-size: 12px; fill: rgb(68, 68, 68); fill-opacity: 1; white-space: pre;" transform="translate(315.84000000000003,0)">1000</text></g><g class="xtick"><text text-anchor="middle" x="0" y="403" style="font-family: TOBESTRIPPEDOpen SansTOBESTRIPPED,verdana,arial,sans-serif; font-size: 12px; fill: rgb(68, 68, 68); fill-opacity: 1; white-space: pre;" transform="translate(443.77,0)">1500</text></g><g class="xtick"><text text-anchor="middle" x="0" y="403" style="font-family: TOBESTRIPPEDOpen SansTOBESTRIPPED,verdana,arial,sans-serif; font-size: 12px; fill: rgb(68, 68, 68); fill-opacity: 1; white-space: pre;" transform="translate(571.69,0)">2000</text></g></g><g class="yaxislayer-above"><g class="ytick"><text text-anchor="end" x="59" y="4.199999999999999" style="font-family: TOBESTRIPPEDOpen SansTOBESTRIPPED,verdana,arial,sans-serif; font-size: 12px; fill: rgb(68, 68, 68); fill-opacity: 1; white-space: pre;" transform="translate(0,378.49)">0.1</text></g><g class="ytick"><text text-anchor="end" x="59" y="4.199999999999999" style="font-family: TOBESTRIPPEDOpen SansTOBESTRIPPED,verdana,arial,sans-serif; font-size: 12px; fill: rgb(68, 68, 68); fill-opacity: 1; white-space: pre;" transform="translate(0,329.13)">0.15</text></g><g class="ytick"><text text-anchor="end" x="59" y="4.199999999999999" style="font-family: TOBESTRIPPEDOpen SansTOBESTRIPPED,verdana,arial,sans-serif; font-size: 12px; fill: rgb(68, 68, 68); fill-opacity: 1; white-space: pre;" transform="translate(0,279.76)">0.2</text></g><g class="ytick"><text text-anchor="end" x="59" y="4.199999999999999" style="font-family: TOBESTRIPPEDOpen SansTOBESTRIPPED,verdana,arial,sans-serif; font-size: 12px; fill: rgb(68, 68, 68); fill-opacity: 1; white-space: pre;" transform="translate(0,230.4)">0.25</text></g><g class="ytick"><text text-anchor="end" x="59" y="4.199999999999999" style="font-family: TOBESTRIPPEDOpen SansTOBESTRIPPED,verdana,arial,sans-serif; font-size: 12px; fill: rgb(68, 68, 68); fill-opacity: 1; white-space: pre;" transform="translate(0,181.03)">0.3</text></g><g class="ytick"><text text-anchor="end" x="59" y="4.199999999999999" style="font-family: TOBESTRIPPEDOpen SansTOBESTRIPPED,verdana,arial,sans-serif; font-size: 12px; fill: rgb(68, 68, 68); fill-opacity: 1; white-space: pre;" transform="translate(0,131.67000000000002)">0.35</text></g><g class="ytick"><text text-anchor="end" x="59" y="4.199999999999999" style="font-family: TOBESTRIPPEDOpen SansTOBESTRIPPED,verdana,arial,sans-serif; font-size: 12px; fill: rgb(68, 68, 68); fill-opacity: 1; white-space: pre;" transform="translate(0,82.3)">0.4</text></g></g><g class="overaxes-above"/></g></g><g class="polarlayer"/><g class="ternarylayer"/><g class="geolayer"/><g class="pielayer"/><g class="glimages"/><defs id="topdefs-c14883"><g class="clips"/></defs><g class="layer-above"><g class="imagelayer"/><g class="shapelayer"/></g><g class="infolayer"><g class="g-gtitle"><text class="gtitle" style="font-family: TOBESTRIPPEDOpen SansTOBESTRIPPED,verdana,arial,sans-serif; font-size: 17px; fill: rgb(68, 68, 68); opacity: 1; font-weight: normal; white-space: pre;" x="350" y="30" text-anchor="middle">loss</text></g><g class="g-xtitle"/><g class="g-ytitle"/></g></svg>